Coordinates
version=1
nRows=22
nColumns=33
inDegrees=yes

Units are S.I. units (second, meters, Newtons, ...)
Angles are in degrees.

endheader
time	ground_thorax_rot_x	ground_thorax_rot_y	ground_thorax_rot_z	ground_thorax_tx	ground_thorax_ty	ground_thorax_tz	clav_prot_r	clav_elev_r	scapula_abduction_r	scapula_elevation_r	scapula_upward_rot_r	scapula_winging_r	shoulder_elv_r	plane_of_elev_r	axial_rot_r	elbow_flexion_r	pro_sup_r	wrist_flex_r	wrist_dev_r	clav_prot_l	clav_elev_l	scapula_abduction_l	scapula_elevation_l	scapula_upward_rot_l	scapula_winging_l	shoulder_elv_l	plane_of_elev_l	axial_rot_l	elbow_flexion_l	pro_sup_l	wrist_flex_l	wrist_dev_l	
6.8400	35.448696	18.324161	23.874318	-259.040474	826.844181	8.498902	11.481238	37.403162	36.108733	45.000000	-39.211724	2069.370674	-1191.483774	146.857431	-125.361105	1460.000250	94.439973	12.602947	1.601602	9.025671	-45.000000	-36.287439	45.000000	-45.000000	-2417.476303	1517.461439	21.217341	-55.037552	1456.948085	81.442815	-1.886825	-14.019897	
6.8500	35.380954	18.378556	24.050654	-257.044688	826.950659	8.420005	11.487414	37.458022	36.197231	45.000000	-38.993746	2069.349337	-1191.481986	146.809732	-125.500852	1460.068148	94.758713	12.653208	1.528640	9.016537	-45.000000	-36.333408	45.000000	-45.000000	-2417.626498	1517.449121	21.376016	-54.467121	1457.017543	81.587620	-1.926170	-14.076881	
6.8600	35.313622	18.441236	24.234962	-254.959221	827.049397	8.343307	11.511358	37.521287	36.295569	45.000000	-38.774917	2069.317882	-1191.490561	146.753086	-125.627993	1460.132849	95.078535	12.710149	1.456009	8.999873	-45.000000	-36.378410	45.000000	-45.000000	-2417.784393	1517.435311	21.537016	-53.882596	1457.085533	81.709658	-1.967266	-14.150059	
6.8700	35.237129	18.533685	24.444148	-252.782795	827.130855	8.270407	11.515041	37.579143	36.385836	45.000000	-38.536068	2069.300681	-1191.494517	146.728176	-125.758822	1460.202055	95.394917	12.769393	1.383853	8.986675	-45.000000	-36.434707	45.000000	-45.000000	-2417.947825	1517.426742	21.692689	-53.296074	1457.153016	81.792665	-2.008606	-14.241967	
6.8800	35.160474	18.637343	24.664513	-250.513269	827.183097	8.203101	11.544874	37.647954	36.487077	45.000000	-38.301643	2069.272964	-1191.510230	146.695134	-125.872136	1460.266417	95.707084	12.832137	1.313936	8.963023	-45.000000	-36.492648	45.000000	-45.000000	-2418.120386	1517.417288	21.845017	-52.697234	1457.214869	81.819467	-2.047975	-14.354931	
6.8900	35.080056	18.756818	24.901403	-248.148158	827.192433	8.143083	11.575912	37.719936	36.589424	45.000000	-38.064833	2069.246654	-1191.532414	146.663890	-125.972866	1460.327337	96.011988	12.898709	1.247297	8.940679	-45.000000	-36.554566	45.000000	-45.000000	-2418.298671	1517.405210	21.993780	-52.097801	1457.266782	81.765983	-2.081634	-14.488680	
6.9000	35.000275	18.882316	25.147486	-245.684835	827.144294	8.091513	11.638357	37.804293	36.704220	45.000000	-37.843888	2069.205493	-1191.571586	146.609397	-126.048829	1460.378175	96.308256	12.969209	1.185595	8.908983	-45.000000	-36.611932	45.000000	-45.000000	-2418.485250	1517.386340	22.141036	-51.495090	1457.302779	81.604511	-2.105826	-14.644108	
6.9100	34.910347	19.031323	25.416712	-243.120884	827.024423	8.048746	11.678528	37.881727	36.807442	45.000000	-37.620340	2069.179748	-1191.611497	146.567403	-126.118488	1460.425164	96.588900	13.043537	1.129186	8.890397	-45.000000	-36.671653	45.000000	-45.000000	-2418.674647	1517.360612	22.287003	-50.907722	1457.318419	81.301314	-2.115311	-14.821144	
6.9200	34.815970	19.189666	25.701095	-240.454325	826.819988	8.014098	11.749529	37.967568	36.919055	45.000000	-37.420358	2069.143519	-1191.668338	146.503932	-126.168232	1460.460726	96.849422	13.121039	1.079190	8.860283	-45.000000	-36.721894	45.000000	-45.000000	-2418.871420	1517.325456	22.430010	-50.326898	1457.307552	80.816831	-2.105579	-15.022742	
6.9300	34.707103	19.370171	26.015664	-237.683811	826.520713	7.986079	11.802130	38.045180	37.021196	45.000000	-37.224754	2069.122236	-1191.728839	146.450808	-126.215377	1460.491287	97.079132	13.202719	1.035293	8.839370	-45.000000	-36.767953	45.000000	-45.000000	-2419.067511	1517.280920	22.569142	-49.770618	1457.261572	80.102024	-2.069189	-15.248404	
6.9400	34.582222	19.575422	26.362609	-234.809147	826.119568	7.962651	11.860029	38.118128	37.116987	45.000000	-37.043530	2069.111725	-1191.795721	146.406476	-126.263265	1460.515528	97.262969	13.286647	0.997198	8.812370	-45.000000	-36.808715	45.000000	-45.000000	-2419.267261	1517.228850	22.697595	-49.236933	1457.176293	79.090908	-1.998615	-15.503997	
6.9500	34.435101	19.812735	26.751473	-231.831170	825.613105	7.941814	11.897346	38.177481	37.196364	45.000000	-36.866136	2069.130219	-1191.859704	146.393527	-126.323597	1460.535512	97.376870	13.375170	0.964057	8.788421	-45.000000	-36.848863	45.000000	-45.000000	-2419.467591	1517.168676	22.811040	-48.737640	1457.042090	77.697365	-1.882075	-15.792366	
6.9600	34.270918	20.072795	27.173043	-228.752087	825.001294	7.921945	11.968620	38.239605	37.274906	45.000000	-36.714280	2069.156369	-1191.933180	146.386642	-126.387723	1460.543080	97.383717	13.470920	0.935315	8.741128	-45.000000	-36.882701	45.000000	-45.000000	-2419.676973	1517.100895	22.903123	-48.269233	1456.848385	75.768904	-1.701590	-16.119789	
6.9700	34.089822	20.350527	27.626328	-225.574847	824.287034	7.902191	12.052976	38.300481	37.351779	45.000000	-36.579381	2069.195453	-1192.014948	146.389154	-126.458797	1460.534644	97.234176	13.582349	0.911034	8.683575	-45.000000	-36.908632	45.000000	-45.000000	-2419.889247	1517.020991	22.976822	-47.844748	1456.574028	73.135357	-1.432486	-16.486155	
6.9800	33.893006	20.647882	28.101446	-222.303391	823.475451	7.882268	12.114846	38.347207	37.406661	45.000000	-36.454307	2069.250491	-1192.098406	146.389256	-126.559315	1460.497510	96.817193	13.725321	0.893193	8.649161	-45.000000	-36.937307	45.000000	-45.000000	-2420.098771	1516.918653	23.035258	-47.511808	1456.187853	69.403859	-1.019559	-16.890934	
6.9900	33.680083	20.962960	28.600111	-218.941533	822.572908	7.862254	12.137888	38.378410	37.442888	45.000000	-36.334037	2069.321477	-1192.185871	146.391600	-126.696917	1460.424118	96.042363	13.912491	0.884303	8.644823	-45.000000	-36.967327	45.000000	-45.000000	-2420.300983	1516.789261	23.076493	-47.287066	1455.673482	64.410769	-0.433915	-17.323375	
7.0000	33.453082	21.294064	29.119247	-215.493040	821.586278	7.842191	12.155409	38.401589	37.465936	45.000000	-36.210338	2069.405343	-1192.277009	146.398319	-126.893167	1460.277217	94.488341	14.179820	0.886664	8.659922	-45.000000	-36.997679	45.000000	-45.000000	-2420.505404	1516.625965	23.061611	-47.281153	1454.890405	56.437410	0.545435	-17.795334	
7.0100	33.211183	21.641693	29.663530	-211.960596	820.522274	7.821987	12.176207	38.426734	37.487812	45.000000	-36.109124	2069.491257	-1192.378263	146.402760	-127.160356	1460.060905	92.201120	14.527608	0.911197	8.665775	-45.000000	-37.020413	45.000000	-45.000000	-2420.708248	1516.438057	22.999132	-47.481300	1453.922095	46.353765	1.812638	-18.266388	
7.0200	32.954308	22.006256	30.234218	-208.346255	819.387096	7.801344	12.202170	38.451642	37.499159	45.000000	-36.038284	2069.589790	-1192.481619	146.400701	-127.494277	1459.772699	89.194712	14.953041	0.970034	8.661938	-45.000000	-37.040835	45.000000	-45.000000	-2420.910320	1516.228422	22.890673	-47.870741	1452.846968	34.957587	3.281340	-18.696503	
7.0300	32.679941	22.392866	30.839478	-204.651264	818.186136	7.779875	12.242058	38.483933	37.506151	45.000000	-36.017389	2069.693435	-1192.598909	146.394431	-127.853638	1459.444154	85.824914	15.415048	1.082640	8.622702	-45.000000	-37.051609	45.000000	-45.000000	-2421.110736	1516.017406	22.771719	-48.298374	1451.904813	24.941560	4.619456	-19.025937	
7.0400	32.389088	22.801915	31.480854	-200.876569	816.923847	7.757155	12.274035	38.509280	37.498592	45.000000	-36.022867	2069.816956	-1192.721856	146.398165	-128.201418	1459.066911	82.023811	15.904516	1.267101	8.584652	-45.000000	-37.058661	45.000000	-45.000000	-2421.305952	1515.799465	22.648172	-48.737956	1451.115876	16.574981	5.798577	-19.250530	
7.0500	32.084014	23.228093	32.145832	-197.023272	815.603741	7.732735	12.297297	38.531114	37.474725	45.000000	-36.070792	2069.943141	-1192.869363	146.393805	-128.501230	1458.643089	77.820261	16.394129	1.569507	8.536685	-45.000000	-37.059979	45.000000	-45.000000	-2421.494816	1515.592303	22.558630	-49.076049	1450.641588	11.725102	6.575633	-19.353372	
